PathFileType	4	(X/Y/Z)	C:/Users/opensim2020/Desktop/walking_exp_matlab/subject01_walking04_straight_03.trc																																																																																																																															
DataRate	CameraRate	NumFrames	NumMarkers	Units	OrigDataRate	OrigDataStartFrame	OrigNumFrames																																																																																																																											
100	100	7	43	mm	100	2102	211																																																																																																																											
Frame#	Time	LFHD			RFHD			LBHD			RBHD			C7			T10			CLAV			STRN			RBAK			LSHO			LUPA			LELB			LFRM			LWRA			LWRB			LFIN			RSHO			RUPA			RELB			RFRM			RWRA			RWRB			RFIN			LASI			RASI			LPSI			RPSI			LTHI			LKNE			LTIB			LANK			LHEE			LTOE			RTHI			RKNE			RTIB			RANK			RHEE			RTOE			*39			*40			*41			*42		
		X1	Y1	Z1	X2	Y2	Z2	X3	Y3	Z3	X4	Y4	Z4	X5	Y5	Z5	X6	Y6	Z6	X7	Y7	Z7	X8	Y8	Z8	X9	Y9	Z9	X10	Y10	Z10	X11	Y11	Z11	X12	Y12	Z12	X13	Y13	Z13	X14	Y14	Z14	X15	Y15	Z15	X16	Y16	Z16	X17	Y17	Z17	X18	Y18	Z18	X19	Y19	Z19	X20	Y20	Z20	X21	Y21	Z21	X22	Y22	Z22	X23	Y23	Z23	X24	Y24	Z24	X25	Y25	Z25	X26	Y26	Z26	X27	Y27	Z27	X28	Y28	Z28	X29	Y29	Z29	X30	Y30	Z30	X31	Y31	Z31	X32	Y32	Z32	X33	Y33	Z33	X34	Y34	Z34	X35	Y35	Z35	X36	Y36	Z36	X37	Y37	Z37	X38	Y38	Z38	X39	Y39	Z39	X40	Y40	Z40	X41	Y41	Z41	X42	Y42	Z42	X43	Y43	Z43
																																																																																																																																		
1	0	-1009.51959	1666.0719	-1187.16907	-985.34161	1673.36206	-1074.44543	-1119.57971	1607.03149	-1169.04956	-1097.50903	1612.19507	-1049.90454	-1143.36169	1426.81677	-1119.58533	-1184.74207	1138.51709	-1078.30237	-1001.10608	1355.32849	-1134.31677	-964.18738	1198.63892	-1137.6156	-1189.37939	1240.6842	-1019.62378	-1084.3833	1373.1123	-1286.53308	-1103.2467	1189.23145	-1370.44604	-1080.8512	1039.13391	-1385.22253	-999.60016	961.10852	-1421.27454	-873.71704	901.01416	-1421.97583	-921.90076	868.68842	-1436.88232	-851.24927	834.7276	-1463.55518	-1039.7002	1393.2644	-976.91742	-1110.30481	1213.81299	-853.20093	-1131.59766	1093.16541	-839.17316	-1130.10608	976.7182	-796.52771	-1082.87036	841.21503	-808.25323	-1120.81714	857.72345	-765.74365	-1105.79858	772.12244	-762.51624	-1039.16858	920.16772	-1200.1792	-999.13788	935.77478	-987.05597	-1212.53015	944.18256	-1111.44934	-1183.08496	948.21661	-969.44843	-1118.82092	600.50433	-1249.9718	-1147.797	466.82635	-1239.38171	-1227.89478	291.98697	-1238.90393	-1259.65076	67.7214	-1191.07214	-1287.29871	38.68022	-1127.80029	-1118.66943	28.47124	-1237.21497	-967.03156	612.75787	-909.39764	-916.39691	462.97836	-939.47852	-942.4906	291.14682	-928.96497	-927.76935	82.88964	-974.24542	-969.18573	38.18922	-1026.84387	-786.74127	56.19529	-975.10236	-1004.01624	1706.4314	-1095.31372	1973.18408	1023.30524	-3101.97095	2012.58142	1022.02136	-3140.5647	NaN	NaN	NaN
2	0.01	-1001.44604	1665.34753	-1187.17871	-977.91559	1672.72217	-1074.32422	-1111.73218	1606.48901	-1169.72168	-1090.4054	1611.64417	-1050.45361	-1136.02734	1426.30859	-1120.34021	-1177.91052	1137.94922	-1079.35962	-993.59418	1354.53735	-1134.89197	-956.8606	1197.90393	-1137.61731	-1182.724	1240.0603	-1020.8418	-1075.98608	1372.65527	-1286.92151	-1094.026	1188.98242	-1371.5094	-1071.40234	1038.86755	-1385.96155	-988.74951	961.745	-1421.79773	-862.04486	903.68616	-1421.8429	-909.68927	870.48212	-1436.59619	-838.46014	837.8739	-1463.30115	-1032.67761	1392.6991	-976.86523	-1105.54578	1213.47083	-854.14551	-1127.58105	1093.09338	-840.09003	-1126.51465	976.5957	-797.36414	-1080.12561	840.86328	-808.23206	-1118.64307	857.50269	-766.17834	-1103.89075	771.90131	-762.73901	-1032.1665	919.51501	-1200.65417	-992.47119	935.18054	-987.44495	-1205.54553	943.51477	-1112.32825	-1176.53333	947.80646	-970.39423	-1114.1178	600.25342	-1250.17102	-1144.76819	466.78946	-1239.69299	-1225.95276	292.61755	-1239.08472	-1259.22168	68.52924	-1191.23474	-1287.12927	39.64466	-1127.95398	-1118.49084	28.37282	-1237.25073	-963.44031	611.78094	-909.40619	-910.94	462.66718	-939.82605	-930.47528	290.34384	-929.01788	-907.04828	82.0037	-973.75977	-946.95569	36.32678	-1026.22607	-764.98041	60.39785	-974.9201	-996.60339	1705.71326	-1095.16846	1973.16064	1023.388	-3101.83813	2012.58142	1021.99298	-3140.63135	NaN	NaN	NaN
3	0.02	-993.38989	1664.6427	-1187.02942	-970.64795	1671.92358	-1073.81384	-1103.80566	1605.88708	-1170.20837	-1083.01013	1611.30444	-1050.74451	-1128.50842	1425.64746	-1120.91577	-1170.97998	1137.38623	-1080.17334	-985.26019	1353.60352	-1135.50928	-949.54681	1197.09692	-1137.36536	-1175.95898	1239.33228	-1021.88989	-1067.63428	1372.20483	-1287.1366	-1084.82666	1188.66614	-1372.08765	-1062.005	1038.56213	-1386.46191	-978.2027	962.32806	-1421.77832	-850.69672	906.34515	-1421.59363	-897.74072	872.22461	-1436.37537	-825.8584	840.71442	-1462.69373	-1026.64465	1391.75476	-977.03918	-1100.58752	1213.06885	-854.87933	-1123.47058	1092.69824	-841.00647	-1123.0481	976.30756	-798.10114	-1077.15332	840.42316	-808.06683	-1115.46582	857.26196	-766.71283	-1102.05798	771.65723	-763.02753	-1024.92126	918.95917	-1201.12048	-985.00061	934.57538	-987.67633	-1198.35291	942.70441	-1113.06262	-1169.6814	947.03955	-971.19647	-1109.3374	600.02441	-1250.26709	-1141.46594	466.79285	-1239.8269	-1223.99316	293.2648	-1239.17725	-1258.70154	69.08811	-1191.30566	-1287.28149	41.16059	-1127.99731	-1118.29968	28.32907	-1237.3407	-958.41669	610.31079	-909.19916	-905.32568	462.38135	-940.04572	-919.32196	289.59268	-929.0556	-887.62134	82.3988	-973.09174	-926.01373	34.99739	-1025.34558	-744.32062	65.30597	-974.7088	-988.99286	1704.91479	-1095.04614	1973.02283	1023.29327	-3101.85913	2012.54614	1021.90759	-3140.52026	NaN	NaN	NaN
4	0.03	-985.20288	1663.82959	-1186.67004	-963.09351	1670.48962	-1073.75928	-1095.76379	1605.2439	-1170.48621	-1075.83655	1610.42419	-1050.98267	-1120.95935	1425.01746	-1121.2782	-1163.89514	1136.78174	-1080.78223	-978.51526	1352.55774	-1133.66846	-942.22156	1196.22156	-1136.72192	-1169.06323	1238.57202	-1022.78583	-1059.10547	1371.63501	-1287.17566	-1075.60205	1188.27356	-1372.2146	-1052.67578	1038.06995	-1386.62732	-967.77899	962.68628	-1421.40979	-839.75421	908.79785	-1421.12183	-886.02374	873.75989	-1435.90039	-813.46735	843.5271	-1462.31641	-1019.81952	1390.92566	-976.84723	-1095.40967	1212.52405	-855.46429	-1118.48035	1092.32385	-841.91345	-1119.2865	976.02991	-798.79773	-1073.73645	839.88336	-807.93616	-1112.58862	856.86719	-767.08734	-1099.02722	771.04987	-763.17432	-1017.56842	918.44952	-1201.44824	-977.84955	933.78571	-987.91272	-1190.96631	941.8396	-1113.64612	-1162.60083	946.31671	-971.84326	-1104.49561	599.80475	-1250.27246	-1137.97913	466.9292	-1239.70386	-1222.07556	293.99713	-1239.13489	-1258.30359	70.10027	-1191.48145	-1286.77905	42.21735	-1128.16174	-1118.07068	28.27638	-1237.41772	-953.91846	609.01862	-908.94104	-899.62341	461.80811	-940.37756	-908.26691	288.99966	-928.97113	-869.1568	82.85027	-972.39001	-906.07922	34.07087	-1024.29236	-725.10376	70.3703	-974.56567	-981.22278	1704.0824	-1094.5802	1973.12268	1023.51508	-3101.93896	2012.49048	1021.98627	-3140.62012	NaN	NaN	NaN
5	0.04	-976.97009	1663.01416	-1186.19641	-955.5907	1670.10461	-1073.10999	-1087.83826	1604.64038	-1170.59692	-1068.44641	1609.77954	-1050.97937	-1113.24048	1424.21118	-1121.44788	-1156.69751	1136.05444	-1081.3053	-970.73273	1351.95471	-1133.65845	-934.74512	1195.37683	-1136.13477	-1162.12378	1237.75891	-1023.42798	-1050.56909	1371.06091	-1287.03894	-1066.44617	1187.79602	-1372.27759	-1043.34631	1037.43652	-1386.50378	-957.55664	962.92346	-1420.78052	-828.64056	910.71167	-1420.40735	-874.57477	875.17145	-1435.27563	-801.42957	845.69153	-1461.35645	-1013.10016	1390.07434	-976.50153	-1089.9353	1211.85583	-855.87451	-1113.65222	1091.53296	-842.71356	-1115.38452	975.36743	-799.44659	-1069.89551	839.31598	-807.74921	-1109.31384	856.35693	-767.51813	-1096.07764	770.47711	-763.37689	-1009.96344	917.96338	-1201.71899	-971.08038	932.93475	-988.23602	-1183.43689	940.90991	-1114.0874	-1155.39661	945.349	-972.31055	-1099.51379	599.61035	-1250.19678	-1134.64417	467.06931	-1239.72498	-1220.1842	294.89026	-1238.94421	-1257.76379	71.14825	-1191.49377	-1286.52307	43.75944	-1128.22144	-1117.81018	28.1714	-1237.49365	-948.95715	607.53711	-908.72626	-893.33649	461.30545	-940.46863	-897.29431	288.41974	-928.85944	-852.27728	83.644	-971.711	-887.87268	33.49397	-1023.22791	-707.39783	75.02534	-974.30359	-973.35754	1703.51086	-1094.14404	1973.07825	1023.45044	-3101.85718	2012.54456	1022.03741	-3140.72363	NaN	NaN	NaN
6	0.05	-968.7627	1662.08398	-1185.63123	-947.71637	1668.73901	-1072.46216	-1079.56677	1603.79199	-1170.49158	-1060.78772	1608.89026	-1050.68945	-1105.30322	1423.39172	-1121.48779	-1149.37561	1135.25208	-1081.62146	-963.0437	1350.98853	-1132.93567	-927.14587	1194.46753	-1135.37476	-1155.09863	1236.97314	-1023.85944	-1041.91589	1370.37207	-1286.75366	-1057.31592	1187.19897	-1372.16162	-1034.12415	1036.7384	-1386.23242	-947.48254	963.05603	-1420.1908	-817.77313	912.36658	-1419.51843	-863.34821	876.315	-1434.40271	-789.75287	847.5163	-1460.11304	-1006.6026	1389.19788	-975.83472	-1084.25635	1211.13013	-856.10742	-1108.31396	1090.82544	-843.34619	-1110.9895	974.67126	-800.06354	-1065.60535	838.69373	-807.34326	-1105.92249	855.74768	-767.87134	-1093.24951	769.58069	-763.52466	-1002.24402	917.45496	-1201.90881	-963.70789	931.97388	-988.22217	-1175.71472	939.94324	-1114.34729	-1148.03284	944.22998	-972.58942	-1094.46155	599.40894	-1250.05127	-1131.23267	467.22256	-1239.6283	-1218.23474	295.73721	-1238.58704	-1257.17786	72.14026	-1191.49377	-1286.08008	45.15742	-1128.28857	-1117.80945	27.8321	-1237.50293	-943.95917	606.45251	-908.47552	-886.75977	460.39294	-940.74261	-886.50201	287.97137	-928.5979	-836.4837	83.98688	-971.30823	-870.88281	33.02819	-1022.75806	-691.47968	78.94701	-973.89301	-965.61084	1702.56921	-1093.55371	1973.12134	1023.3877	-3101.79395	2012.56433	1021.91412	-3140.58398	NaN	NaN	NaN
7	0.06	-960.44305	1661.17615	-1184.76794	-940.40491	1668.22559	-1071.47412	-1071.38574	1603.02051	-1170.26123	-1053.29407	1608.16895	-1050.34924	-1098.20081	1422.78784	-1121.41895	-1141.88623	1134.38	-1081.74219	-955.27057	1350.02063	-1131.99878	-919.45111	1193.59863	-1134.47827	-1147.96082	1236.03613	-1024.1106	-1033.23438	1369.70691	-1286.27832	-1048.30481	1186.59143	-1371.81628	-1024.91931	1036.04077	-1385.71655	-937.55652	963.05035	-1419.41638	-807.48926	914.08044	-1418.61401	-852.32599	877.20801	-1433.32642	-778.19556	848.86493	-1458.39758	-999.73523	1388.31812	-975.17407	-1078.23572	1210.26147	-856.13922	-1102.64771	1089.99695	-843.78442	-1106.17883	973.89557	-800.45392	-1061.172	837.83569	-807.09222	-1101.93848	854.91077	-768.23157	-1089.22839	768.89655	-763.65912	-994.29047	916.88245	-1201.98621	-956.95862	930.94226	-988.49011	-1167.84375	938.95868	-1114.47009	-1140.4292	943.08228	-972.70282	-1089.33301	599.25989	-1249.82605	-1127.67761	467.41708	-1239.52881	-1216.07532	296.73944	-1238.23511	-1256.54028	73.29316	-1191.44873	-1285.42126	46.47359	-1128.28101	-1117.56702	27.83923	-1237.54578	-937.12231	605.02777	-908.22595	-879.98297	459.94611	-940.80359	-875.85822	287.6886	-928.47412	-822.31244	84.19536	-970.99835	-857.0011	33.66987	-1022.08411	-677.19342	82.40454	-973.45068	-957.78589	1701.59937	-1092.85559	1973.10388	1023.28296	-3102	2012.58826	1022.01099	-3140.57129	NaN	NaN	NaN
